<?xml version='1.0' encoding='utf-8'?>
<svg xmlns="http://www.w3.org/2000/svg" version="1.1" width="1024px" height="768px" viewBox="28 681 1024 768"> <g id="layer1"> <g style="fill:rgb(255,255,255); fill-opacity:1.0; stroke-linejoin: miter"> <path d="M27.999,680.49976C27.866589,680.49976,27.7396,680.55237,27.64597,680.646C27.55234,680.7396,27.499739,680.86664,27.499739,680.999L27.500738,1449.0C27.500738,1449.2758,27.724266,1449.4993,28.0,1449.4993L1052.001,1449.5002C1052.1334,1449.5002,1052.2604,1449.4476,1052.354,1449.354C1052.4476,1449.2604,1052.5002,1449.1334,1052.5002,1449.001L1052.4993,681.0C1052.4993,680.72424,1052.2758,680.50073,1052.0,680.50073L27.999,680.49976 Z"/> </g> <g> <g style="fill:rgb(0,0,0); fill-opacity:1.0; stroke-linejoin: miter"> <path d="M553.49976,970.4665Q527.42896,970.4666,504.5504,977.3836Q481.67178,983.7679,464.1137,996.5378Q447.0879,1009.3072,436.97894,1028.461Q427.40195,1047.616,427.40173,1073.1544L510.40286,1093.3718Q510.40286,1079.5388,521.0441,1069.43Q531.6854,1059.3203,547.64716,1059.3207Q561.4804,1059.3204,572.1218,1067.8335Q582.23114,1075.814,582.23114,1089.6481Q582.23114,1099.2245,574.2501,1108.802Q566.80084,1118.3793,544.98676,1132.2124Q534.3456,1138.5972,525.30054,1147.1105Q516.7874,1155.0907,509.87064,1166.7958Q503.48596,1177.9696,499.7615,1192.8671Q496.0373,1207.7648,496.03723,1227.4508L496.03714,1243.4128L569.46106,1243.4131Q569.46106,1237.56,569.99347,1232.2395Q571.0577,1222.1302,574.2499,1216.278Q583.29486,1201.9124,593.93604,1192.3352Q604.5773,1182.7583,615.21826,1174.777Q625.8598,1167.3282,635.9688,1159.8793Q646.0781,1152.9623,654.0589,1142.8534Q661.5077,1132.7446,666.2963,1118.3789Q671.08496,1104.545,671.08496,1082.7311Q671.08484,1057.192,662.04,1036.4417Q653.527,1016.22345,637.56506,1001.32574Q622.1357,986.96027,600.8532,978.44745Q579.57086,970.4665,554.03186,970.4665 Z M496.56934,1292.3624L496.56903,1365.7865L569.46106,1365.7865L569.46124,1292.3622 Z"/> </g> </g> <g style="fill:rgb(0,0,0); fill-opacity:1.0; stroke-linejoin: miter"> <path d="M780.3669,1365.059L778.2234,1365.4281Q762.98364,1366.5441,689.04047,1367.2131Q614.5858,1367.8818,513.68933,1367.7552Q417.3968,1367.5789,359.6642,1366.722Q341.16602,1366.445,329.19052,1366.1183L319.12537,1365.7825Q310.83084,1365.4358,310.73755,1365.0592Q313.25558,1363.9027,379.5132,1363.1349Q445.77087,1362.3671,545.55237,1362.3379Q645.3337,1362.3671,711.5911,1363.1346Q777.8489,1363.9025,780.3669,1365.059"/> </g> <g style="fill:rgb(0,0,0); fill-opacity:1.0; stroke-linejoin: miter"> <path d="M530.4727,1228.607L535.4358,1228.6069L540.3989,1228.6073Q540.399,1283.6799,540.3989,1338.7523Q535.4358,1338.7522,530.4727,1338.7526Q530.4727,1283.6798,530.4727,1228.607"/> </g> <g style="fill:rgb(88,49,28); fill-opacity:1.0; stroke-linejoin: miter"> <path d="M549.9071,843.4581Q547.9364,843.6622,546.8467,844.52344Q545.85095,845.25116,545.12244,847.1782L553.37305,855.68463L557.1737,855.3424Q558.5958,853.97266,558.6316,851.5271Q558.62305,848.62573,557.3292,846.441Q555.32544,843.1145,549.9241,843.4562"/> </g> <g style="fill:rgb(255,255,255); fill-opacity:1.0; stroke-linejoin: miter"> <path d="M546.1137,861.10706L544.3118,869.27466L543.6219,903.12726L559.8252,900.7316L556.3471,861.24225L546.11774,861.10706"/> </g> <g style="fill:rgb(0,0,0); fill-opacity:1.0; stroke-linejoin: miter"> <path d="M537.984,898.43774Q536.85803,916.3244,536.9274,919.4289L537.3185,932.16504Q537.39874,934.644,537.8449,964.8746Q537.9497,970.505,538.07556,971.5375L538.10114,971.6499L545.8548,972.981L550.99457,917.2928L557.1775,968.88104L564.1065,968.0315Q563.7877,946.73413,564.27295,931.74286Q564.5626,920.5255,566.3972,896.59875L537.9971,898.4367"/> </g> <g style="fill:rgb(0,0,0); fill-opacity:1.0; stroke-linejoin: miter"> <path d="M521.22736,862.25476L513.0848,866.2663Q515.68286,875.1553,517.2645,878.7206Q519.0688,882.9062,520.87384,884.3211Q522.70416,885.7741,525.21045,885.0955Q527.293,884.64075,531.9112,881.44116L530.92053,914.7091L544.85767,916.74054L546.0995,878.513L546.0939,861.45044L544.2782,862.87524L533.85675,865.07574Q531.57184,868.8893,530.0553,870.39575Q528.5885,871.9799,525.03986,874.2378L521.23474,862.27826"/> </g> <g style="fill:rgb(0,0,0); fill-opacity:1.0; stroke-linejoin: miter"> <path d="M556.3907,861.98517L553.9745,917.3846L564.0315,916.2335L573.15314,916.7936Q571.93964,892.79376,571.0653,884.4993Q570.23724,875.75494,568.2221,867.59515L556.4295,862.00323"/> </g> <g style="fill:rgb(126,142,167); fill-opacity:1.0; stroke-linejoin: miter"> <path d="M550.36414,865.95044L547.6424,866.7584L548.7405,869.3619L548.741,869.4134L547.2486,896.0858L549.96173,898.47595L552.7631,895.6161L550.6116,869.76666L552.5591,867.6751L550.36707,865.95264"/> </g> <g style="fill:rgb(255,189,154); fill-opacity:1.0; stroke-linejoin: miter"> <path d="M546.6523,845.1396Q545.92377,845.19867,545.271,846.35315Q544.3393,848.0551,544.07684,849.6177Q544.00525,850.1096,544.0253,850.55347Q544.2251,852.4488,544.1849,852.53284Q544.20264,852.7287,544.0277,854.4424Q544.0043,854.79895,544.0133,855.0588Q544.02246,855.3783,544.0853,855.76263Q544.4557,857.4626,544.4218,857.5512Q544.4702,857.7618,544.3716,859.43744Q544.3729,859.8971,544.4212,860.1837Q544.5456,860.9011,544.8669,861.0668Q545.1924,861.28424,546.0717,861.19L546.1067,863.4001L549.9154,866.1974L556.1586,862.4771L555.7911,858.2168Q556.9891,856.31354,557.32745,855.3973Q557.7295,854.39185,557.5974,853.5837Q557.2836,852.17834,556.3679,852.1918Q555.767,852.1698,554.3803,853.96246Q554.2385,849.81433,553.8825,848.16895Q553.5117,846.31006,552.7197,845.7416Q552.22614,845.36206,551.47565,845.28937Q551.1722,845.25757,550.75903,845.2753Q548.86993,845.46106,548.73883,845.41394Q548.2656,845.418,547.02966,845.15216L546.6745,845.13763"/> </g> <g style="fill:rgb(255,189,154); fill-opacity:1.0; stroke-linejoin: miter"> <path d="M567.0106,919.394Q567.23975,919.42755,567.2339,920.26697Q567.2017,921.00244,566.9407,921.52966Q566.6083,922.2804,565.4902,922.4018Q565.6922,922.1362,565.9139,921.6579L566.7246,919.75604Q566.90826,919.39343,567.01025,919.394 M564.97815,916.14355Q565.03705,917.80457,564.9477,918.5802Q564.9017,919.0368,564.8111,919.4315Q564.7877,919.5806,564.4464,920.7611L564.3456,921.2249Q564.2608,921.7286,564.38135,922.1022Q564.52203,922.5387,564.8254,922.673Q564.9411,922.7146,565.0381,922.6984Q565.5601,922.9009,566.1519,923.0267Q566.66595,923.13605,567.1628,923.1671Q569.30164,923.3629,570.72266,921.5806Q571.60785,920.4862,572.0884,919.08765Q572.5112,917.82996,572.258,916.987Q572.15497,916.6782,572.06366,916.5765L564.98663,916.14435"/> </g> <g style="fill:rgb(255,189,154); fill-opacity:1.0; stroke-linejoin: miter"> <path d="M517.00305,853.1154Q515.77954,853.259,515.4351,854.0111Q515.3177,854.2748,515.2822,854.6463L515.2423,856.23816Q515.2128,856.672,515.1285,856.977Q515.0332,857.32526,514.85144,857.69574Q513.967,859.29535,513.97754,859.36115Q513.76855,859.8705,513.7692,860.26074Q513.75714,860.8629,514.19885,861.6308Q514.6025,862.3677,515.9455,863.84094L516.88934,865.6999L521.4745,863.59656Q521.5766,861.7371,521.58295,860.77924Q521.616,852.8077,517.01514,853.1141"/> </g> <g style="fill:rgb(255,0,0); fill-opacity:0.09411765; stroke-linejoin: miter"> <path d="M551.6229,860.3003Q549.9426,860.92535,549.1273,861.07605Q548.34283,861.2463,546.85785,861.24786L546.088,863.3651L549.9006,866.22894L552.8403,864.4535L551.6251,860.30804"/> </g> <g style="fill:rgb(0,0,0); fill-opacity:1.0; stroke-linejoin: miter"> <path d="M557.16364,967.01733L557.1492,972.35675Q558.8004,973.0037,559.14734,973.4312Q559.3163,973.6146,559.36536,973.82263Q559.39594,973.81696,559.44824,974.69366Q559.48254,974.91254,559.58185,975.1081Q559.7792,975.5163,560.4748,975.9781Q561.50867,976.6536,563.02545,977.19806Q564.0875,977.579,564.8773,977.5087Q566.08594,977.3705,566.94763,976.6337Q567.6803,975.96344,567.5205,975.1307Q567.44147,974.5211,566.79846,973.24524Q566.1574,971.96204,563.2388,966.5383L557.1829,967.01605"/> </g> <g style="fill:rgb(0,0,0); fill-opacity:1.0; stroke-linejoin: miter"> <path d="M538.78235,970.47955L538.7707,970.5032Q536.9628,974.2096,536.0752,975.4596Q535.68713,976.02924,535.24005,976.50555Q535.1191,976.66595,533.74445,977.9278Q533.42084,978.24695,533.14453,978.58185Q532.4378,979.4457,531.8906,980.5362Q530.5629,983.24,532.33344,983.5044Q533.2615,983.7181,535.61395,983.3599Q537.79816,983.01544,539.2164,982.4334Q540.4975,981.9159,541.06146,981.15625Q541.35455,980.7757,541.5316,980.3073Q541.68085,979.95294,541.8274,979.0927Q541.8599,978.97363,541.8913,978.9525Q541.94116,978.9133,542.00653,978.9418Q542.4624,979.1837,542.64844,979.2279Q542.8363,979.2875,543.1016,979.3151Q543.7139,979.37,544.4231,979.1848Q545.8279,978.7859,546.3492,977.7485Q547.1433,976.1781,545.63525,971.9463L538.80005,970.48315"/> </g> <g style="fill:rgb(60,70,79); fill-opacity:1.0; stroke-linejoin: miter"> <path d="M524.4585,849.80334L507.47336,849.70984L490.4884,849.61664L524.4585,849.80334"/> </g> <g style="fill:rgb(60,70,79); fill-opacity:1.0; stroke-linejoin: miter"> <path d="M528.60675,850.03L512.24,850.03046L495.8732,850.0308Q495.87314,852.46375,495.8732,854.89667Q512.24,854.8969,528.6068,854.89703Q528.60675,852.46375,528.60675,850.03"/> </g> <g style="fill:rgb(60,70,79); fill-opacity:1.0; stroke-linejoin: miter"> <path d="M545.54254,851.12964L540.6117,851.12994L535.68097,851.13007Q535.68097,852.39246,535.681,853.65485Q540.6117,853.65497,545.5426,853.65533Q545.54254,852.39246,545.54254,851.12964"/> </g> <g style="fill:rgb(60,70,79); fill-opacity:1.0; stroke-linejoin: miter"> <path d="M539.18616,850.7733L533.44336,850.77356L527.70056,850.7737Q527.70056,852.5173,527.7006,854.2605Q533.44336,854.26074,539.1862,854.2611Q539.18616,852.5173,539.18616,850.7733"/> </g> <g style="fill:rgb(112,97,78); fill-opacity:1.0; stroke-linejoin: miter"> <path d="M624.90814,1029.8817L625.32404,1035.4274L669.8157,1035.4275L675.4154,1035.4285L675.4154,1035.4296L674.63806,1029.882L669.0383,1029.8818L624.90814,1029.8817 Z"/> </g> <g style="fill:rgb(112,97,78); fill-opacity:1.0; stroke-linejoin: miter"> <path d="M624.90814,1029.8817L619.3471,1029.8827L619.3471,1029.8838L619.7629,1035.4272L625.32404,1035.4274L624.90814,1029.8817L624.90814,1029.8827 Z"/> </g> <g style="fill:rgb(112,97,78); fill-opacity:1.0; stroke-linejoin: miter"> <path d="M619.3469,1029.8817L619.3469,1029.8827L619.3471,1029.8838L619.3471,1029.8827L619.3469,1029.8817 Z"/> </g> <g style="fill:rgb(112,97,78); fill-opacity:1.0; stroke-linejoin: miter"> <path d="M619.3469,1029.8817L619.3469,1029.8827L619.3469,1029.8817 Z"/> </g> <g style="fill:rgb(112,97,78); fill-opacity:1.0; stroke-linejoin: miter"> <path d="M674.3151,1067.5287L674.3151,1067.529L674.3153,1067.5298L674.3153,1067.5308L674.3153,1067.5298L674.3153,1067.5308L674.3151,1067.5287 Z"/> </g> <g style="fill:rgb(112,97,78); fill-opacity:1.0; stroke-linejoin: miter"> <path d="M679.91486,1067.5287L674.3153,1067.5298L674.3153,1067.5308L675.09247,1073.0741L680.6922,1073.0752L679.91486,1067.5287 Z"/> </g> <g style="fill:rgb(112,97,78); fill-opacity:1.0; stroke-linejoin: miter"> <path d="M627.73175,1067.5284L622.17053,1067.5295L622.17053,1067.5305L622.5865,1073.0739L628.14764,1073.075L627.73175,1067.5284 Z"/> </g> <g style="fill:rgb(112,97,78); fill-opacity:1.0; stroke-linejoin: miter"> <path d="M627.73175,1067.5284L628.14764,1073.0739L675.09247,1073.0741L674.3153,1067.5298L674.3153,1067.5308L674.3151,1067.5298L674.3151,1067.529L674.3151,1067.5287L627.73175,1067.5284 Z"/> </g> <g style="fill:rgb(112,97,78); fill-opacity:1.0; stroke-linejoin: miter"> <path d="M622.17053,1067.5284L622.17053,1067.5295L622.17053,1067.5305L622.17053,1067.5295L622.17053,1067.5284 Z"/> </g> <g style="fill:rgb(112,97,78); fill-opacity:1.0; stroke-linejoin: miter"> <path d="M685.1916,1105.1753L685.1917,1105.1764L685.1917,1105.1775L685.1917,1105.1764L685.1917,1105.1775L685.1916,1105.1753 Z"/> </g> <g style="fill:rgb(112,97,78); fill-opacity:1.0; stroke-linejoin: miter"> <path d="M685.1917,1105.1764L685.58044,1107.9491L685.96893,1110.721L685.1917,1105.1764 Z"/> </g> <g style="fill:rgb(112,97,78); fill-opacity:1.0; stroke-linejoin: miter"> <path d="M630.55524,1105.175L630.9711,1110.7207L680.36926,1110.721L685.96893,1110.7219L685.1917,1105.1764L685.1917,1105.1775L685.1916,1105.1764L685.1916,1105.1753L679.5919,1105.1764L679.5919,1105.1753L630.55524,1105.175 Z"/> </g> <g style="fill:rgb(112,97,78); fill-opacity:1.0; stroke-linejoin: miter"> <path d="M630.55524,1105.175L624.9942,1105.1761L624.9942,1105.1771L625.4101,1110.7207L630.9711,1110.7217L630.55524,1105.175 Z"/> </g> <g style="fill:rgb(112,97,78); fill-opacity:1.0; stroke-linejoin: miter"> <path d="M624.9942,1105.175L624.9942,1105.1761L624.9942,1105.1771L624.9942,1105.1761L624.9942,1105.175 Z"/> </g> <g style="fill:rgb(112,97,78); fill-opacity:1.0; stroke-linejoin: miter"> <path d="M690.4684,1142.822L690.4685,1142.8231L690.4685,1142.8241L690.4685,1142.8231L690.4685,1142.8241L690.4684,1142.822 Z"/> </g> <g style="fill:rgb(112,97,78); fill-opacity:1.0; stroke-linejoin: miter"> <path d="M690.4803,1142.9066L690.8572,1145.596L691.2024,1148.059L690.4803,1142.9066 Z"/> </g> <g style="fill:rgb(112,97,78); fill-opacity:1.0; stroke-linejoin: miter"> <path d="M633.37885,1142.8217L633.7948,1148.3673L685.6459,1148.3676L691.2457,1148.3687L690.4685,1142.8231L690.4685,1142.8241L690.4684,1142.8231L690.4684,1142.822L684.86865,1142.8219L633.37885,1142.8217 Z"/> </g> <g style="fill:rgb(112,97,78); fill-opacity:1.0; stroke-linejoin: miter"> <path d="M627.8177,1142.8215L628.2337,1148.3673L633.7948,1148.3683L633.37885,1142.8217L627.8177,1142.8215 Z"/> </g> <g style="fill:rgb(112,97,78); fill-opacity:1.0; stroke-linejoin: miter"> <path d="M695.7451,1180.469L695.74524,1180.47L695.74524,1180.471L695.74524,1180.47L695.74524,1180.471L695.7451,1180.469 Z"/> </g> <g style="fill:rgb(112,97,78); fill-opacity:1.0; stroke-linejoin: miter"> <path d="M695.74524,1180.47L696.134,1183.2427L696.4536,1185.5231L695.74524,1180.47 Z"/> </g> <g style="fill:rgb(112,97,78); fill-opacity:1.0; stroke-linejoin: miter"> <path d="M636.20245,1180.4685L636.6184,1186.0139L690.92267,1186.0142L696.52246,1186.0153L695.74524,1180.47L695.74524,1180.471L695.7451,1180.47L695.7451,1180.469L690.14545,1180.4688L636.20245,1180.4685 Z"/> </g> <g style="fill:rgb(112,97,78); fill-opacity:1.0; stroke-linejoin: miter"> <path d="M630.6413,1180.4684L631.0572,1186.0139L636.6184,1186.015L636.20245,1180.4685L630.6413,1180.4684 Z"/> </g> <g style="fill:rgb(112,97,78); fill-opacity:1.0; stroke-linejoin: miter"> <path d="M701.0219,1218.1156L701.02203,1218.1166L701.02203,1218.1178L701.02203,1218.1166L701.02203,1218.1178L701.0219,1218.1156 Z"/> </g> <g style="fill:rgb(112,97,78); fill-opacity:1.0; stroke-linejoin: miter"> <path d="M701.02203,1218.1166L701.41077,1220.8893L701.70013,1222.9542L701.02203,1218.1166 Z"/> </g> <g style="fill:rgb(112,97,78); fill-opacity:1.0; stroke-linejoin: miter"> <path d="M695.42224,1218.1155L696.19946,1223.661L701.79926,1223.662L701.02203,1218.1166L701.02203,1218.1178L701.0219,1218.1166L701.0219,1218.1156L695.42224,1218.1155 Z"/> </g> <g style="fill:rgb(112,97,78); fill-opacity:1.0; stroke-linejoin: miter"> <path d="M633.4649,1218.1151L633.8808,1223.6608L639.44196,1223.6617L639.026,1218.1152L633.4649,1218.1151 Z"/> </g> <g style="fill:rgb(112,97,78); fill-opacity:1.0; stroke-linejoin: miter"> <path d="M639.026,1218.1152L639.44196,1223.6608L696.19946,1223.661L695.42206,1218.1155L639.026,1218.1152 Z"/> </g> <g style="fill:rgb(112,97,78); fill-opacity:1.0; stroke-linejoin: miter"> <path d="M706.3229,1255.9355L706.68744,1258.5361L706.94666,1260.3853L706.3229,1255.9355 Z"/> </g> <g style="fill:rgb(112,97,78); fill-opacity:1.0; stroke-linejoin: miter"> <path d="M641.8496,1255.762L642.2655,1261.3075L701.4762,1261.3077L707.07605,1261.3088L706.2988,1255.7634L706.2988,1255.7644L706.2987,1255.7634L706.2987,1255.7623L700.69885,1255.7634L700.69885,1255.7623L641.8496,1255.762 Z"/> </g> <g style="fill:rgb(112,97,78); fill-opacity:1.0; stroke-linejoin: miter"> <path d="M636.2885,1255.7618L636.70447,1261.3075L642.2655,1261.3086L641.8496,1255.762L636.2885,1255.7618 Z"/> </g> <g style="fill:rgb(112,97,78); fill-opacity:1.0; stroke-linejoin: miter"> <path d="M706.2987,1255.7623L706.2988,1255.7634L706.2988,1255.7644L706.2988,1255.7634L706.2988,1255.7644L706.2987,1255.7623 Z"/> </g> <g style="fill:rgb(112,97,78); fill-opacity:1.0; stroke-linejoin: miter"> <path d="M711.57544,1293.4092L711.57544,1293.4102L711.57544,1293.4092L711.57544,1293.4102L711.57544,1293.4092L711.57544,1293.4102 Z"/> </g> <g style="fill:rgb(112,97,78); fill-opacity:1.0; stroke-linejoin: miter"> <path d="M644.67316,1293.4087L644.6977,1293.7346L645.0891,1298.9542L706.753,1298.9545L712.35266,1298.9565L711.8171,1295.1324L711.57556,1293.4103L711.57544,1293.4102L705.976,1293.4113L644.67316,1293.4087 Z"/> </g> <g style="fill:rgb(112,97,78); fill-opacity:1.0; stroke-linejoin: miter"> <path d="M644.67316,1293.4087L639.1121,1293.4097L639.1121,1293.4106L639.5279,1298.9542L645.0891,1298.9552L644.67316,1293.4087 Z"/> </g> <g style="fill:rgb(112,97,78); fill-opacity:1.0; stroke-linejoin: miter"> <path d="M639.112,1293.4087L639.112,1293.4097L639.1121,1293.4106L639.1121,1293.4097L639.112,1293.4087 Z"/> </g> <g style="fill:rgb(112,97,78); fill-opacity:1.0; stroke-linejoin: miter"> <path d="M716.85223,1331.0558L716.85236,1331.0569L716.85236,1331.058L716.85236,1331.0569L716.85236,1331.058L716.85223,1331.0558 Z"/> </g> <g style="fill:rgb(112,97,78); fill-opacity:1.0; stroke-linejoin: miter"> <path d="M647.4968,1331.0555L647.9127,1336.6012L712.0297,1336.6014L717.10645,1336.6025C717.28,1336.6014,717.4501,1336.5854,717.61487,1336.5549L716.85236,1331.0569L716.85236,1331.058L716.85223,1331.0569L716.85223,1331.0558L711.2524,1331.0569L711.2524,1331.0558L647.4968,1331.0555 Z"/> </g> <g style="fill:rgb(112,97,78); fill-opacity:1.0; stroke-linejoin: miter"> <path d="M647.4968,1331.0555L641.9357,1331.0566L641.9357,1331.0576L642.3515,1336.6012L647.9127,1336.6023L647.4968,1331.0555 Z"/> </g> <g style="fill:rgb(112,97,78); fill-opacity:1.0; stroke-linejoin: miter"> <path d="M716.85236,1331.0569L716.86584,1331.1547L717.62274,1336.5535L716.85236,1331.0569 Z"/> </g> <g style="fill:rgb(112,97,78); fill-opacity:1.0; stroke-linejoin: miter"> <path d="M641.9356,1331.0555L641.9356,1331.0566L641.9357,1331.0576L641.9357,1331.0566L641.9356,1331.0555 Z"/> </g> <g style="fill:rgb(173,158,127); fill-opacity:1.0; stroke-linejoin: miter"> <path d="M622.8979,1003.4365L622.8979,1003.4365L622.89777,1003.4375L622.89575,1003.05164L649.78186,1361.5227C649.8963,1363.0498,648.7512,1364.3806,647.2241,1364.4949C645.697,1364.6095,644.3662,1363.4645,644.2518,1361.9373L644.2518,1361.9373L617.3657,1003.4665C617.3562,1003.3382,617.3554,1003.20935,617.36383,1003.08075L617.36383,1003.08075L617.36383,1003.0798C617.4624,1001.5515,618.78107,1000.3927,620.30914,1000.49115C621.8374,1000.5896,622.9964,1001.9084,622.8979,1003.4365 Z"/> </g> <g style="fill:rgb(173,158,127); fill-opacity:1.0; stroke-linejoin: miter"> <path d="M671.21497,1005.6521L671.21497,1005.6521L671.21497,1005.6532L671.1882,1005.2684L721.0866,1361.266C721.2991,1362.7826,720.24207,1364.1844,718.7255,1364.3969C717.2089,1364.6095,715.80725,1363.5524,715.59467,1362.0358L715.59467,1362.0358L665.69635,1006.0381C665.67834,1005.9105,665.6695,1005.7819,665.6695,1005.6532L665.6695,1005.6532L665.6695,1005.6521C665.6695,1004.1208,666.91095,1002.87946,668.44214,1002.87946C669.9736,1002.87946,671.21497,1004.1208,671.21497,1005.6521 Z"/> </g> </g> </svg>